# Blender 3.4.1
# www.blender.org
mtllib WoodLog2.mtl
o WoodLog2
v 0.000000 -0.003000 -0.300000
v 0.000000 3.213188 0.000000
v 0.259808 -0.003000 -0.150000
v 0.259808 -0.003000 0.150000
v 0.000000 -0.003000 0.300000
v -0.259808 -0.003000 0.150000
v -0.259808 -0.003000 -0.150000
v 0.000000 3.258812 -0.300000
v 0.259808 3.258812 -0.150000
v 0.259808 3.258812 0.150000
v 0.000000 3.258812 0.300000
v -0.259808 3.258812 0.150000
v -0.259808 3.258812 -0.150000
v 0.000000 -0.083159 0.000000
vn -0.0865 0.9849 0.1498
vn -0.1730 0.9849 -0.0000
vn -0.0865 0.9849 -0.1498
vn 0.0865 0.9849 -0.1498
vn 0.1730 0.9849 -0.0000
vn 0.0865 0.9849 0.1498
vn -0.5000 -0.0000 -0.8660
vn 0.2948 -0.9556 -0.0000
vn 0.1474 -0.9556 0.2553
vn -0.1474 -0.9556 0.2553
vn -0.2948 -0.9556 -0.0000
vn -0.1474 -0.9556 -0.2553
vn 0.1474 -0.9556 -0.2553
vn -1.0000 -0.0000 -0.0000
vn -0.5000 -0.0000 0.8660
vn 0.5000 -0.0000 0.8660
vn 1.0000 -0.0000 -0.0000
vn 0.5000 -0.0000 -0.8660
vt 0.500000 1.000000
vt 0.250000 0.718750
vt 0.250000 0.468750
vt 0.687500 0.000000
vt 0.250000 0.656250
vt 0.250000 0.906250
vt 0.437500 0.718750
vt 0.437500 0.468750
vt 0.687500 1.000000
vt 0.875000 0.000000
vt 0.250000 0.718750
vt 0.250000 0.468750
vt 0.874799 1.000000
vt 0.500000 1.000000
vt 0.437500 0.468750
vt 0.437500 0.718750
vt 0.843750 0.000000
vt 0.687500 1.000000
vt 0.250000 0.718750
vt 0.250000 0.468750
vt 0.765625 0.000000
vt 0.656250 0.000000
vt 0.687500 1.000000
vt 0.437500 0.468750
vt 0.437500 0.718750
vt 0.578125 0.000000
vt 0.437500 0.468750
vt 0.437500 0.718750
vt 0.500000 0.000000
vt 0.687500 1.000000
vt 0.250000 0.468750
vt 0.250000 0.718750
vt 0.687500 0.000000
vt 0.875000 1.000000
vt 0.437500 0.718750
vt 0.437500 0.468750
vt 0.874799 0.000000
vt 0.500000 0.000000
vt 0.250000 0.468750
vt 0.250000 0.718750
vt 0.843750 1.000000
vt 0.687500 0.000000
vt 0.437500 0.718750
vt 0.437500 0.468750
vt 0.765625 1.000000
vt 0.656250 1.000000
vt 0.250000 0.468750
vt 0.250000 0.718750
vt 0.687500 0.000000
vt 0.578125 1.000000
vt 0.250000 0.906250
vt 0.250000 0.656250
s 0
usemtl Material.008
f 8/27/1 2/5/1 9/31/1
f 9/32/2 2/6/2 10/35/2
f 10/36/3 2/5/3 11/39/3
f 11/40/4 2/6/4 12/43/4
f 12/44/5 2/5/5 13/47/5
f 13/48/6 2/6/6 8/28/6
f 13/49/7 8/29/7 1/1/7 7/23/7
f 4/11/8 14/51/8 3/7/8
f 5/15/9 14/52/9 4/12/9
f 14/51/10 5/16/10 6/19/10
f 6/20/11 7/24/11 14/52/11
f 14/51/12 7/25/12 1/2/12
f 14/52/13 1/3/13 3/8/13
f 6/21/14 12/45/14 13/50/14 7/26/14
f 5/17/15 11/41/15 12/46/15 6/22/15
f 4/13/16 10/37/16 11/42/16 5/18/16
f 3/9/17 9/33/17 10/38/17 4/14/17
f 9/34/18 3/10/18 1/4/18 8/30/18
