# Blender 3.4.1
# www.blender.org
mtllib SpruceTreeTall2x.mtl
o Tree4B
v -0.012853 -0.012000 -1.375185
v 0.579406 5.891546 -1.033244
v 1.171666 -0.012000 -0.691303
v 1.171666 -0.012000 0.676462
v -0.012853 -0.012000 1.360344
v -1.197372 -0.012000 0.676462
v -1.197372 -0.012000 -0.691303
v 0.000000 2.967363 -10.583987
v -9.744431 2.967363 -4.131204
v -9.166000 2.967363 5.291994
v -0.072413 3.414784 11.808871
v 9.151847 3.107536 7.097982
v 9.800467 2.744097 -5.706981
v -0.012853 -0.012001 -0.007421
v 1.171666 5.891546 -0.691303
v 1.415878 5.891546 0.817457
v -0.012853 5.891546 1.360344
v -1.197372 5.891546 0.676462
v -1.197372 5.891546 -0.691303
v -0.012853 5.891546 -1.375185
v 1.171666 5.891546 -0.007421
v 0.579406 5.891546 1.018402
v -0.605112 5.891546 1.018402
v -1.197372 5.891546 -0.007421
v -0.605112 5.891546 -1.033244
v 3.062391 5.265655 5.304216
v -6.124781 5.265655 0.000000
v -3.030543 5.333021 -6.163673
v -3.062390 5.265655 5.304216
v 6.748438 5.322126 0.817466
v 3.849012 5.197892 -5.502544
v -0.286183 12.029956 -3.853147
v -3.334122 12.138008 -0.478177
v -2.690091 12.190145 2.623749
v 0.287059 12.181076 3.778386
v 3.261792 12.138008 0.990386
v 3.087401 11.959954 -2.165483
v 1.281195 12.420109 1.881317
v -1.529416 12.138008 0.603087
v -1.533616 12.356831 -1.732657
v -0.194476 12.138008 1.623410
v 2.271802 12.349615 -0.181438
v 0.529713 12.138008 -1.619171
v -5.006954 9.891165 -7.594652
v -9.114885 10.142811 -1.115744
v -2.905417 9.877231 7.666967
v 3.972548 9.877231 7.172357
v 8.992004 9.817562 -0.348889
v 5.432253 9.692904 -7.147686
v 3.488866 12.127972 2.097920
v -3.561285 12.127972 1.972487
v -3.851922 12.195946 -2.730173
v -0.072419 12.127972 4.070406
v 3.561284 12.127972 -1.972487
v 0.072418 12.127972 -4.070406
v -1.679956 18.380341 -2.088300
v -2.957895 18.355942 -0.000186
v -1.330012 18.394493 2.518630
v 1.614088 18.341814 2.397993
v 2.965044 18.233620 -0.295311
v 1.383530 18.198717 -2.764600
v 1.211285 18.380341 0.450059
v -1.618570 18.687607 0.858882
v -1.658195 18.627439 -1.057251
v 0.186512 18.380341 1.276049
v 1.008345 18.380341 -0.850416
v -0.219370 18.380341 -1.324901
v -4.826707 16.670288 -5.992351
v -6.862605 16.670288 -0.218457
v -3.969980 17.104265 7.495797
v 4.066510 16.670288 7.319390
v 8.520693 16.642881 -0.455292
v 2.746807 16.670288 -7.174210
v 4.019402 18.923355 1.963988
v -3.835173 19.105947 2.227940
v -3.566507 18.729271 -1.396453
v 0.570398 18.729271 3.736046
v 2.946820 18.729271 -2.412870
v -0.224020 18.818880 -4.653038
v -1.228502 24.616953 -1.458739
v -1.659679 24.686377 0.201686
v -0.311847 24.680676 1.507953
v 1.315193 24.626947 0.988310
v 1.376382 24.711323 -0.668776
v 0.484358 24.569132 -1.986954
v 0.742459 24.711323 0.044285
v -0.455378 24.711323 0.598435
v -0.775317 24.711323 -0.093137
v 0.247387 25.006735 1.034993
v 0.422520 24.711323 -0.647286
v -0.336368 24.711323 -0.715997
v -4.493605 22.292356 -3.179629
v -5.085414 22.607948 2.074758
v -1.206298 22.631567 5.911343
v 4.725236 22.462448 3.953949
v 4.954645 22.292356 -2.324171
v 0.477469 22.292356 -5.479374
v 2.692112 23.742950 0.220810
v -2.120151 23.966118 2.233972
v -3.162299 23.899731 -0.918335
v 1.130934 23.921473 2.909228
v 1.550221 23.742950 -2.247474
v -0.953361 23.788700 -3.395387
v -0.023292 30.073858 -0.083584
vn 0.1590 -0.9459 -0.2829
vn 0.3064 -0.9519 -0.0055
vn 0.1317 -0.9501 0.2829
vn -0.1692 -0.9486 0.2676
vn 0.0131 0.3604 0.9327
vn -0.0837 -0.9721 -0.2190
vn -0.5000 -0.0000 -0.8660
vn -0.0000 -1.0000 -0.0000
vn -0.3494 -0.9351 -0.0596
vn -0.2539 -0.9292 0.2684
vn 0.3245 -0.9459 0.0029
vn -0.1025 -0.9599 -0.2610
vn 0.5000 -0.0000 -0.8660
vn 0.1636 -0.9325 0.3221
vn 0.9964 -0.0098 -0.0846
vn 0.4249 -0.0098 0.9052
vn -0.5000 -0.0000 0.8660
vn -1.0000 -0.0000 -0.0000
vn 0.0820 -0.9724 -0.2183
vn -0.2919 -0.9561 -0.0263
vn 0.8225 0.5374 0.1864
vn -0.7228 0.3355 0.6042
vn -0.8028 0.5132 -0.3036
vn 0.8603 0.4463 -0.2464
vn 0.0596 0.4471 -0.8925
vn -0.6365 0.4714 -0.6104
vn 0.6340 0.5216 -0.5710
vn -0.4408 0.5639 -0.6984
vn -0.7815 0.4692 0.4112
vn 0.0654 0.5291 0.8460
vn 0.7710 0.4158 0.4823
vn 0.2727 -0.9581 -0.0874
vn -0.1077 -0.9463 -0.3047
vn -0.3053 -0.9507 0.0540
vn 0.1388 -0.9464 -0.2918
vn 0.1512 -0.8988 0.4114
vn -0.1950 -0.9191 -0.3425
vn 0.2534 -0.9346 -0.2497
vn -0.3531 -0.9350 -0.0325
vn -0.2039 -0.9494 0.2390
vn 0.2503 -0.9680 0.0192
vn 0.0676 -0.9334 0.3525
vn 0.3048 -0.9495 0.0747
vn -0.5480 0.3004 0.7807
vn -0.9440 0.3266 0.0470
vn 0.4135 0.3784 -0.8281
vn -0.4652 0.4142 -0.7823
vn -0.4778 0.3469 0.8071
vn 0.4747 0.3562 0.8049
vn 0.6347 0.3034 0.7107
vn 0.9219 0.3519 0.1622
vn 0.9567 0.2899 -0.0263
vn -0.9238 0.3093 0.2256
vn 0.3560 0.2797 -0.8916
vn -0.4465 0.2793 -0.8501
vn -0.1732 -0.9165 0.3606
vn 0.2102 -0.9758 -0.0597
vn 0.2409 -0.9182 0.3145
vn 0.1716 -0.9369 -0.3045
vn -0.2279 -0.9258 -0.3016
vn -0.2087 -0.9526 -0.2212
vn -0.4150 -0.9081 0.0550
vn 0.2571 -0.8808 0.3977
vn -0.0295 -0.9225 0.3848
vn 0.3266 -0.9449 0.0238
vn 0.2772 -0.8912 -0.3591
vn -0.3734 -0.9274 -0.0227
vn -0.3994 0.4281 0.8107
vn 0.5998 0.5417 0.5889
vn 0.5069 0.3671 0.7799
vn 0.9049 0.3934 -0.1624
vn 0.8961 0.4376 0.0742
vn -0.8210 0.5420 0.1795
vn 0.3671 0.3479 -0.8627
vn -0.5070 0.4132 -0.7565
vn -0.6640 0.4700 0.5815
vn -0.9208 0.3670 0.1321
vn 0.1237 0.4952 -0.8599
vn -0.4660 0.3654 -0.8058
vn -0.2764 -0.8932 -0.3546
vn -0.5404 -0.8343 -0.1090
vn -0.0368 -0.8940 -0.4465
vn -0.5063 -0.7734 0.3814
vn -0.5228 -0.8514 0.0428
vn 0.2313 -0.9166 -0.3261
vn -0.2668 -0.8343 0.4824
vn 0.0345 -0.8887 0.4572
vn 0.3346 -0.9095 -0.2465
vn 0.3934 -0.8915 0.2247
vn 0.2643 -0.8726 0.4107
vn 0.4487 -0.8933 0.0254
vn -0.8231 0.4629 -0.3290
vn -0.0910 0.4218 0.9021
vn 0.7895 0.3624 0.4953
vn 0.6094 0.4363 0.6620
vn 0.8284 0.3542 -0.4339
vn 0.8668 0.3549 -0.3503
vn -0.8320 0.4222 0.3600
vn 0.1278 0.3491 -0.9283
vn -0.5506 0.4515 -0.7022
vn -0.2371 0.4148 0.8785
vn -0.8810 0.4180 0.2216
vn -0.2541 0.4800 -0.8397
vt 0.750000 0.781250
vt 0.750000 0.343750
vt 0.750000 0.093750
vt 0.781250 0.031250
vt 0.700872 0.523718
vt 0.262591 0.934213
vt 0.875000 0.431853
vt 0.937500 0.343750
vt 0.937500 0.093750
vt 0.968750 0.031250
vt 0.968750 0.703125
vt 0.750000 0.343750
vt 0.750000 0.093750
vt 0.781250 0.703125
vt 0.937299 0.750000
vt 0.937500 0.093750
vt 0.937500 0.343750
vt 0.750000 0.750000
vt 0.937500 0.000000
vt 0.750000 0.343750
vt 0.750000 0.093750
vt 0.750000 0.000000
vt 0.937500 0.593750
vt 0.937500 0.781250
vt 0.937500 0.093750
vt 0.937500 0.343750
vt 0.750000 0.593750
vt 0.022911 0.924802
vt 0.229667 0.980210
vt 0.046953 0.096316
vt 0.434901 0.047644
vt 0.384109 0.952092
vt 0.051180 0.883359
vt 0.651916 0.066121
vt 0.074192 0.980556
vt 0.649556 0.070203
vt 0.665937 0.514194
vt 0.037671 0.055053
vt 0.635875 0.137703
vt 0.663715 0.570132
vt 0.029853 0.969389
vt 0.703415 0.884147
vt 0.664914 0.333873
vt 0.186617 0.025849
vt 0.036836 0.025190
vt 0.680067 0.036790
vt 0.016342 0.443129
vt 0.423232 0.104399
vt 0.597052 0.027893
vt 0.658297 0.927986
vt 0.750000 0.531250
vt 0.750000 0.281250
vt 0.633080 0.834081
vt 0.341572 0.877470
vt 0.968750 0.431853
vt 0.968750 0.302522
vt 0.698166 0.943904
vt 0.781250 0.302522
vt 0.937299 0.349397
vt 0.170654 0.680174
vt 0.028813 0.526177
vt 0.750000 0.349397
vt 0.937500 0.400603
vt 0.068957 0.938920
vt 0.123331 0.039679
vt 0.750000 0.400603
vt 0.937500 0.994353
vt 0.355371 0.155783
vt 0.937500 0.380647
vt 0.022442 0.087050
vt 0.750000 0.994353
vt 0.672811 0.581851
vt 0.750000 0.380647
vt 0.280061 0.132898
vt 0.781250 0.431853
vt 0.686187 0.817191
vt 0.611847 0.985624
vt 0.875000 0.302522
vt 0.843650 0.349397
vt 0.021966 0.906933
vt 0.216221 0.735116
vt 0.032743 0.579389
vt 0.129245 0.013536
vt 0.843750 0.400603
vt 0.072886 0.063364
vt 0.843750 0.994353
vt 0.308380 0.123796
vt 0.843750 0.380647
vt 0.330757 0.107181
vt 0.240050 0.584307
vt 0.434306 0.412491
vt 0.084747 0.326615
vt 0.059161 0.835925
vt 0.247765 0.437314
vt 0.622811 0.538743
vt 0.017981 0.581675
vt 0.076882 0.463122
vt 0.516200 0.473711
vt 0.533417 0.311498
vt 0.633486 0.736382
vt 0.693915 0.589854
vt 0.437334 0.605137
vt 0.526454 0.026981
vt 0.706240 0.731249
vt 0.546190 0.438400
vt 0.411251 0.707119
vt 0.109254 0.510565
vt 0.524051 0.471852
vt 0.287788 0.497444
vt 0.195453 0.486297
vt 0.153710 0.529517
vt 0.015485 0.496197
vt 0.540542 0.785701
vt 0.432440 0.851073
vt 0.421934 0.735232
vt 0.265091 0.827293
vt 0.027791 0.759489
vt 0.390059 0.189017
vt 0.163244 0.458337
vt 0.671070 0.818037
vt 0.074415 0.824032
vt 0.685767 0.821469
vt 0.527573 0.374447
vt 0.533303 0.050019
vt 0.358261 0.056443
vt 0.445314 0.643835
vt 0.553137 0.563946
vt 0.044174 0.866870
vt 0.260373 0.959651
vt 0.399004 0.471497
vt 0.255093 0.475793
vt 0.642040 0.865915
vt 0.584473 0.215455
vt 0.168110 0.204342
vt 0.033952 0.966778
vt 0.036940 0.111924
vt 0.391304 0.265658
vt 0.693098 0.617919
vt 0.078367 0.921245
vt 0.588944 0.968218
vt 0.664441 0.438882
vt 0.525741 0.963965
vt 0.686117 0.841400
vt 0.561188 0.164628
vt 0.206178 0.659958
vt 0.065423 0.981032
vt 0.673905 0.027020
vt 0.614489 0.561560
vt 0.379688 0.973731
vt 0.337839 0.976054
vt 0.010614 0.117113
vt 0.400558 0.330655
vt 0.235420 0.033278
vt 0.187176 0.980475
vt 0.117016 0.034760
vt 0.090687 0.936060
vt 0.675726 0.336526
vt 0.577942 0.428586
vt 0.160529 0.059005
vt 0.180115 0.026183
vt 0.152575 0.025849
vt 0.630873 0.333873
vt 0.528414 0.929256
vt 0.560322 0.911275
vt 0.028532 0.266993
vt 0.438041 0.005426
vt 0.594892 0.121087
vt 0.028532 0.942030
vt 0.136355 0.862140
vt 0.687022 0.959989
vt 0.672872 0.032947
vt 0.575601 0.975440
vt 0.431690 0.979736
vt 0.682487 0.912717
vt 0.497538 0.942172
vt 0.601809 0.421521
vt 0.436794 0.040240
vt 0.672700 0.224765
vt 0.289191 0.485455
vt 0.650044 0.837716
vt 0.658430 0.283103
vt 0.665326 0.566126
vt 0.603978 0.230393
vt 0.406220 0.755477
vt 0.042931 0.745725
vt 0.099850 0.162239
vt 0.322435 0.455400
vt 0.464965 0.451012
vt 0.547697 0.365178
vt 0.374613 0.555261
vt 0.503919 0.427929
vt 0.530311 0.538905
vt 0.127702 0.303842
vt 0.542253 0.527228
vt 0.076665 0.421735
vt 0.147467 0.559392
vt 0.359529 0.008504
vt 0.333200 0.909804
vt 0.030280 0.616276
vt 0.698221 0.783668
vt 0.197123 0.856663
vt 0.529224 0.870206
vt 0.230916 0.150905
vt 0.326630 0.069111
vt 0.098618 0.229362
vt 0.215647 0.789049
vt 0.266792 0.298062
vt 0.164856 0.873828
vt 0.224385 0.913417
vt 0.607753 0.878440
vt 0.126995 0.540886
vt 0.029402 0.172715
vt 0.042127 0.667871
vt 0.551416 0.489939
vt 0.190255 0.218630
vt 0.497538 0.067235
vt 0.677709 0.724882
vt 0.523013 0.195909
vt 0.436794 0.919647
vt 0.236238 0.935618
vt 0.269860 0.269132
vt 0.144360 0.497985
vt 0.233756 0.065251
vt 0.074840 0.925007
vt 0.677851 0.563017
vt 0.653694 0.640446
vt 0.151296 0.034212
vt 0.046209 0.876464
vt 0.193703 0.710513
vt 0.036859 0.802573
vt 0.332487 0.924140
vt 0.164884 0.081856
vt 0.131099 0.029928
vt 0.155916 0.440241
vt 0.024909 0.052601
vt 0.260287 0.989829
vt 0.543546 0.963726
vt 0.669942 0.517387
vt 0.256473 0.971863
vt 0.279602 0.037820
vt 0.203152 0.099506
vt 0.668570 0.091213
vt 0.482308 0.978995
vt 0.300673 0.968968
vt 0.220870 0.333954
vt 0.053332 0.123457
vt 0.661662 0.455270
vt 0.623070 0.087967
vt 0.318440 0.059873
vt 0.664864 0.731790
vt 0.688940 0.218656
vt 0.588460 0.048344
vt 0.484045 0.054195
vt 0.590382 0.333873
vt 0.112084 0.025849
vt 0.512602 0.944524
vt 0.665944 0.979651
vt 0.078261 0.033858
vt 0.491515 0.171254
vt 0.652389 0.007697
vt 0.136355 0.970176
vt 0.223390 0.692136
vt 0.605826 0.977691
vt 0.634921 0.229078
vt 0.219957 0.831859
vt 0.106761 0.981967
vt 0.647645 0.040631
vt 0.307840 0.703930
vt 0.497467 0.548119
vt 0.389644 0.628008
vt 0.581220 0.433535
vt 0.696784 0.729647
vt 0.343017 0.475881
vt 0.186174 0.567941
vt 0.655635 0.486186
vt 0.606048 0.588539
vt 0.408877 0.038660
vt 0.433693 0.448973
vt 0.511271 0.639758
vt 0.264870 0.398968
vt 0.409643 0.797253
vt 0.607402 0.272170
vt 0.273294 0.592850
vt 0.114449 0.548620
vt 0.067564 0.330432
vt 0.673158 0.358963
vt 0.304357 0.454328
vt 0.508533 0.798999
vt 0.356197 0.575466
vt 0.188658 0.364969
vt 0.116975 0.487707
vt 0.036624 0.246471
vt 0.059385 0.824865
vt 0.318440 0.883895
vt 0.281586 0.400982
vt 0.345944 0.283322
vt 0.184938 0.831955
vt 0.311126 0.918473
vt 0.167392 0.134836
vt 0.686183 0.222673
vt 0.188231 0.240857
vt 0.214386 0.966768
vt 0.116247 0.678878
vt 0.518584 0.954094
vt 0.208224 0.971877
vt 0.405796 0.726968
vt 0.573130 0.950900
vt 0.118841 0.182777
vt 0.044241 0.820770
vt 0.562892 0.545903
vt 0.505077 0.943025
vt 0.307840 0.092581
vt 0.697784 0.728333
vt 0.564902 0.413353
vt 0.160636 0.098673
vt 0.216773 0.985965
vt 0.686654 0.565174
vt 0.506121 0.967218
vt 0.238172 0.148207
vt 0.136936 0.934364
vt 0.027504 0.798965
vt 0.081110 0.044279
vt 0.057000 0.926871
vt 0.210249 0.984742
vt 0.341212 0.264085
vt 0.019022 0.118025
vt 0.449179 0.964806
vt 0.366906 0.098144
vt 0.465423 0.863865
vt 0.090625 0.934363
vt 0.411543 0.978077
vt 0.043031 0.948624
vt 0.675792 0.588560
vt 0.678704 0.688136
vt 0.235475 0.042132
vt 0.224943 0.859930
vt 0.696046 0.401464
vt 0.286318 0.146425
vt 0.293890 0.939263
vt 0.345944 0.900349
vt 0.696088 0.977899
vt 0.026270 0.962829
vt 0.684527 0.448271
vt 0.295818 0.963917
vt 0.283074 0.989408
vt 0.689688 0.611500
vt 0.650608 0.370365
vt 0.462748 0.978819
vt 0.361483 0.044180
vt 0.405797 0.109942
vt 0.573130 0.333873
vt 0.046809 0.904952
vt 0.035331 0.957795
vt 0.028532 0.237389
vt 0.619792 0.989944
vt 0.571856 0.981108
vt 0.124051 0.985170
vt 0.030541 0.721866
vt 0.561676 0.222900
vt 0.540029 0.928666
vt 0.558076 0.297387
vt 0.360317 0.822471
vt 0.611558 0.472336
vt 0.106650 0.515159
vt 0.333876 0.798965
vt 0.387481 0.044279
vt 0.100976 0.302320
vt 0.052097 0.746032
vt 0.494398 0.529411
vt 0.172208 0.383351
vt 0.691017 0.648924
vt 0.296123 0.757794
vt 0.618609 0.598539
vt 0.243811 0.669037
vt 0.415057 0.772733
vt 0.138296 0.641512
vt 0.453087 0.586100
vt 0.345264 0.665989
vt 0.352846 0.461354
vt 0.350722 0.821398
vt 0.587154 0.684015
vt 0.133132 0.411751
vt 0.245340 0.571300
vt 0.497446 0.780900
vt 0.336744 0.026978
vt 0.680367 0.048747
vt 0.024373 0.024650
vt 0.513757 0.017168
vt 0.551833 0.909745
vt 0.674619 0.050041
vt 0.359022 0.986947
vt 0.559552 0.104782
vt 0.540029 0.017577
vt 0.283074 0.029415
vt 0.029429 0.033974
vt 0.669096 0.048050
s 0
usemtl Material.024
f 27/94/1 24/85/1 18/65/1 10/37/1
f 28/97/2 25/87/2 19/68/2 9/32/2
f 31/109/3 2/5/3 20/72/3 8/28/3
f 30/105/4 21/76/4 15/53/4 13/47/4
f 10/36/5 29/101/5 41/146/5 34/121/5
f 29/102/6 23/82/6 17/61/6 11/39/6
f 19/69/7 25/88/7 20/73/7 1/1/7 7/24/7
f 4/12/8 14/51/8 3/8/8
f 5/16/8 14/52/8 4/13/8
f 14/51/8 5/17/8 6/20/8
f 6/21/8 7/25/8 14/52/8
f 14/51/8 7/26/8 1/2/8
f 14/52/8 1/3/8 3/9/8
f 15/54/9 2/6/9 31/110/9 13/48/9
f 20/74/10 25/89/10 28/98/10 8/29/10
f 18/65/11 23/83/11 29/103/11 10/37/11
f 16/57/12 21/77/12 30/106/12 12/43/12
f 15/55/13 3/10/13 1/4/13 20/75/13 2/7/13
f 19/70/14 24/85/14 27/94/14 9/33/14
f 3/11/15 15/56/15 21/78/15 16/58/15 4/14/15
f 4/15/16 16/59/16 22/79/16 17/62/16 5/18/16
f 5/19/17 17/63/17 23/84/17 18/66/17 6/22/17
f 6/23/18 18/67/18 24/86/18 19/71/18 7/27/18
f 17/64/19 22/80/19 26/90/19 11/40/19
f 26/91/20 22/81/20 16/60/20 12/44/20
f 30/107/21 13/49/21 37/132/21 42/149/21
f 9/34/22 27/95/22 39/139/22 33/117/22
f 27/96/23 10/38/23 34/122/23 39/140/23
f 12/45/24 30/108/24 42/150/24 36/128/24
f 13/50/25 31/111/25 43/153/25 37/133/25
f 8/30/26 28/99/26 40/143/26 32/113/26
f 31/112/27 8/31/27 32/114/27 43/154/27
f 28/100/28 9/35/28 33/118/28 40/144/28
f 29/104/29 11/41/29 35/124/29 41/147/29
f 26/92/30 12/46/30 36/129/30 38/135/30
f 11/42/31 26/93/31 38/136/31 35/125/31
f 40/145/32 33/119/32 45/161/32 52/187/32
f 41/148/33 35/126/33 47/168/33 53/190/33
f 38/137/34 36/130/34 48/172/34 50/179/34
f 34/123/35 41/148/35 53/190/35 46/165/35
f 42/151/36 37/134/36 49/176/36 54/193/36
f 35/127/37 38/138/37 50/180/37 47/169/37
f 39/141/38 34/123/38 46/165/38 51/183/38
f 36/131/39 42/152/39 54/194/39 48/173/39
f 37/134/40 43/155/40 55/197/40 49/176/40
f 33/120/41 39/142/41 51/184/41 45/162/41
f 32/115/42 40/145/42 52/187/42 44/157/42
f 43/156/43 32/116/43 44/158/43 55/198/43
f 45/163/44 51/185/44 63/227/44 57/204/44
f 44/159/45 52/188/45 64/231/45 56/201/45
f 55/199/46 44/160/46 56/202/46 67/243/46
f 52/189/47 45/164/47 57/205/47 64/232/47
f 53/191/48 47/170/48 59/212/48 65/235/48
f 50/181/49 48/174/49 60/215/49 62/223/49
f 46/166/50 53/192/50 65/236/50 58/208/50
f 54/195/51 49/177/51 61/219/51 66/239/51
f 47/171/52 50/182/52 62/224/52 59/213/52
f 51/186/53 46/167/53 58/209/53 63/228/53
f 48/175/54 54/196/54 66/240/54 60/216/54
f 49/178/55 55/200/55 67/244/55 61/220/55
f 62/225/56 60/217/56 72/261/56 74/269/56
f 58/210/57 65/237/57 77/281/57 70/254/57
f 66/241/58 61/221/58 73/265/58 78/285/58
f 59/214/59 62/226/59 74/270/59 71/258/59
f 63/229/60 58/211/60 70/255/60 75/273/60
f 60/218/61 66/242/61 78/286/61 72/262/61
f 61/222/62 67/245/62 79/289/62 73/266/62
f 57/206/63 63/230/63 75/274/63 69/250/63
f 56/203/64 64/233/64 76/277/64 68/247/64
f 67/246/65 56/203/65 68/247/65 79/290/65
f 64/234/66 57/207/66 69/251/66 76/278/66
f 65/238/67 59/214/67 71/258/67 77/282/67
f 77/283/68 71/259/68 83/304/68 89/327/68
f 74/271/69 72/263/69 84/308/69 86/315/69
f 70/256/70 77/284/70 89/328/70 82/300/70
f 78/287/71 73/267/71 85/311/71 90/331/71
f 71/260/72 74/272/72 86/316/72 83/305/72
f 75/275/73 70/257/73 82/301/73 87/319/73
f 72/264/74 78/288/74 90/332/74 84/309/74
f 73/268/75 79/291/75 91/335/75 85/312/75
f 69/252/76 75/276/76 87/320/76 81/297/76
f 68/248/77 76/279/77 88/323/77 80/293/77
f 79/292/78 68/249/78 80/294/78 91/336/78
f 76/280/79 69/253/79 81/298/79 88/324/79
f 89/329/80 83/306/80 95/350/80 101/373/80
f 86/317/81 84/310/81 96/354/81 98/361/81
f 82/302/82 89/330/82 101/374/82 94/346/82
f 90/333/83 85/313/83 97/357/83 102/377/83
f 83/307/84 86/318/84 98/362/84 95/351/84
f 87/321/85 82/303/85 94/347/85 99/365/85
f 84/310/86 90/334/86 102/378/86 96/354/86
f 85/314/87 91/337/87 103/381/87 97/358/87
f 81/299/88 87/322/88 99/366/88 93/343/88
f 80/295/89 88/325/89 100/369/89 92/339/89
f 91/338/90 80/296/90 92/340/90 103/382/90
f 88/326/91 81/299/91 93/343/91 100/370/91
f 100/371/92 93/344/92 104/385/92
f 101/375/93 95/352/93 104/386/93
f 98/363/94 96/355/94 104/387/94
f 94/348/95 101/376/95 104/388/95
f 102/379/96 97/359/96 104/389/96
f 95/353/97 98/364/97 104/390/97
f 99/367/98 94/349/98 104/391/98
f 96/356/99 102/380/99 104/392/99
f 97/360/100 103/383/100 104/393/100
f 93/345/101 99/368/101 104/394/101
f 92/341/102 100/372/102 104/395/102
f 103/384/103 92/342/103 104/396/103
