# Blender 3.4.1
# www.blender.org
mtllib WoodLogSharp.mtl
o WoodLogSharp
v -1.914527 8.206117 1.601318
v -1.914527 11.900126 1.901318
v -1.654719 8.206117 1.751318
v -1.654719 8.206117 2.051318
v -1.914527 8.206117 2.201318
v -2.174335 8.206117 2.051318
v -2.174335 8.206117 1.751318
v -1.914527 11.467929 1.601318
v -1.654719 11.467929 1.751318
v -1.654719 11.467929 2.051318
v -1.914527 11.467929 2.201318
v -2.174335 11.467929 2.051318
v -2.174335 11.467929 1.751318
v -1.914527 7.723125 1.901318
vn 0.4285 0.5152 -0.7422
vn 0.8571 0.5152 -0.0000
vn 0.4285 0.5152 0.7422
vn -0.4285 0.5152 0.7422
vn -0.8571 0.5152 -0.0000
vn -0.4285 0.5152 -0.7422
vn -0.5000 -0.0000 -0.8660
vn -0.8807 0.4737 -0.0000
vn -0.4403 0.4737 -0.7627
vn -0.4403 -0.4737 0.7627
vn -0.8807 -0.4737 -0.0000
vn -0.4403 -0.4737 -0.7627
vn 0.4403 -0.4737 -0.7627
vn -1.0000 -0.0000 -0.0000
vn -0.5000 -0.0000 0.8660
vn 0.5000 -0.0000 0.8660
vn 1.0000 -0.0000 -0.0000
vn 0.5000 -0.0000 -0.8660
vt 0.500000 1.000000
vt 0.250000 0.718750
vt 0.250000 0.468750
vt 0.687500 0.000000
vt 0.250000 0.656250
vt 0.250000 0.906250
vt 0.437500 0.718750
vt 0.437500 0.468750
vt 0.687500 1.000000
vt 0.875000 0.000000
vt 0.250000 0.718750
vt 0.250000 0.468750
vt 0.874799 1.000000
vt 0.500000 1.000000
vt 0.437500 0.468750
vt 0.437500 0.718750
vt 0.843750 0.000000
vt 0.687500 1.000000
vt 0.250000 0.718750
vt 0.250000 0.468750
vt 0.765625 0.000000
vt 0.656250 0.000000
vt 0.687500 1.000000
vt 0.437500 0.468750
vt 0.437500 0.718750
vt 0.578125 0.000000
vt 0.437500 0.468750
vt 0.437500 0.718750
vt 0.500000 0.000000
vt 0.687500 1.000000
vt 0.250000 0.468750
vt 0.250000 0.718750
vt 0.687500 0.000000
vt 0.875000 1.000000
vt 0.437500 0.718750
vt 0.437500 0.468750
vt 0.874799 0.000000
vt 0.500000 0.000000
vt 0.250000 0.468750
vt 0.250000 0.718750
vt 0.843750 1.000000
vt 0.687500 0.000000
vt 0.437500 0.718750
vt 0.437500 0.468750
vt 0.765625 1.000000
vt 0.656250 1.000000
vt 0.250000 0.468750
vt 0.250000 0.718750
vt 0.687500 0.000000
vt 0.578125 1.000000
vt 0.250000 0.906250
vt 0.250000 0.656250
s 0
usemtl Material.007
f 8/27/1 2/5/1 9/31/1
f 9/32/2 2/6/2 10/35/2
f 10/36/3 2/5/3 11/39/3
f 11/40/4 2/6/4 12/43/4
f 12/44/5 2/5/5 13/47/5
f 13/48/6 2/6/6 8/28/6
f 13/49/7 8/29/7 1/1/7 7/23/7
f 4/11/8 3/7/8 14/51/8
f 5/15/9 4/12/9 14/52/9
f 14/51/10 5/16/10 6/19/10
f 6/20/11 7/24/11 14/52/11
f 14/51/12 7/25/12 1/2/12
f 14/52/13 1/3/13 3/8/13
f 6/21/14 12/45/14 13/50/14 7/26/14
f 5/17/15 11/41/15 12/46/15 6/22/15
f 4/13/16 10/37/16 11/42/16 5/18/16
f 3/9/17 9/33/17 10/38/17 4/14/17
f 9/34/18 3/10/18 1/4/18 8/30/18
