# Blender 3.4.1
# www.blender.org
mtllib Button.mtl
o Button
v 0.085340 1.090814 -0.081756
v 0.061781 1.028929 -0.084151
v 0.085340 1.093657 0.046401
v 0.065108 1.030730 0.050819
v -0.085340 1.090814 -0.081756
v -0.061781 1.030470 -0.084261
v -0.085340 1.093657 0.046401
v -0.065108 1.030730 0.050819
v -0.028447 1.124329 0.092555
v 0.028447 1.124329 0.092555
v 0.027544 1.030730 0.073478
v -0.027544 1.030730 0.073478
v 0.028447 1.120024 -0.103152
v -0.028447 1.120024 -0.103152
v -0.027544 1.030730 -0.091783
v 0.027544 1.030730 -0.091783
v 0.098590 1.124329 -0.009102
v 0.082631 1.030730 -0.009153
v -0.098590 1.124329 -0.009102
v -0.082631 1.030730 -0.009153
v -0.027544 1.030730 -0.009153
v 0.027544 1.030730 -0.009153
v 0.028447 1.170368 -0.009102
v -0.028447 1.170368 -0.009102
vn 0.9563 -0.2156 0.1976
vn -0.5495 -0.1512 0.8217
vn -0.9560 -0.2427 -0.1651
vn 0.2707 -0.1006 -0.9574
vn -0.5141 0.7491 -0.4177
vn -0.0214 -0.9997 0.0143
vn 0.0031 -1.0000 0.0021
vn -0.0000 -1.0000 -0.0000
vn 0.5141 0.7491 -0.4177
vn -0.0000 0.8816 -0.4719
vn -0.2711 -0.1010 -0.9572
vn -0.0000 -0.1263 -0.9920
vn 0.5495 -0.1512 0.8217
vn -0.0000 -0.1997 0.9799
vn -0.0000 0.9109 0.4125
vn 0.5758 0.7145 0.3973
vn -0.5758 0.7145 0.3973
vn -0.9563 -0.2156 0.1976
vn 0.9568 -0.2406 -0.1634
vt 0.375000 1.000000
vt 0.125000 0.750000
vt 0.375000 0.000000
vt 0.625000 1.000000
vt 0.875000 0.750000
vt 0.625000 0.000000
vt 0.375000 0.250000
vt 0.125000 0.500000
vt 0.625000 0.250000
vt 0.875000 0.500000
vt 0.375000 0.750000
vt 0.625000 0.750000
vt 0.375000 0.500000
vt 0.625000 0.500000
vt 0.375000 0.416667
vt 0.291667 0.500000
vt 0.375000 0.333333
vt 0.208333 0.500000
vt 0.625000 0.333333
vt 0.791667 0.500000
vt 0.625000 0.416667
vt 0.708333 0.500000
vt 0.208333 0.750000
vt 0.375000 0.916667
vt 0.291667 0.750000
vt 0.375000 0.833333
vt 0.708333 0.750000
vt 0.625000 0.833333
vt 0.791667 0.750000
vt 0.625000 0.916667
vt 0.125000 0.625000
vt 0.375000 0.125000
vt 0.875000 0.625000
vt 0.625000 0.125000
vt 0.375000 0.625000
vt 0.625000 0.625000
vt 0.708333 0.625000
vt 0.791667 0.625000
vt 0.208333 0.625000
vt 0.291667 0.625000
s 0
f 17/32/1 3/7/1 4/9/1 18/34/1
f 9/15/2 7/13/2 8/14/2 12/21/2
f 19/35/3 5/11/3 6/12/3 20/36/3
f 13/24/4 1/1/4 2/4/4 16/30/4
f 24/40/5 14/25/5 5/11/5 19/35/5
f 22/38/6 16/29/6 2/5/6 18/33/6
f 20/36/7 6/12/7 15/27/7 21/37/7
f 21/37/8 15/27/8 16/29/8 22/38/8
f 17/31/9 1/2/9 13/23/9 23/39/9
f 23/39/10 13/23/10 14/25/10 24/40/10
f 5/11/11 14/26/11 15/28/11 6/12/11
f 14/26/12 13/24/12 16/30/12 15/28/12
f 3/7/13 10/17/13 11/19/13 4/9/13
f 10/17/14 9/15/14 12/21/14 11/19/14
f 10/18/15 23/39/15 24/40/15 9/16/15
f 3/8/16 17/31/16 23/39/16 10/18/16
f 12/22/8 21/37/8 22/38/8 11/20/8
f 8/14/8 20/36/8 21/37/8 12/22/8
f 11/20/8 22/38/8 18/33/8 4/10/8
f 9/16/17 24/40/17 19/35/17 7/13/17
f 7/13/18 19/35/18 20/36/18 8/14/18
f 1/3/19 17/32/19 18/34/19 2/6/19
