# Blender 3.4.1
# www.blender.org
mtllib TrainingDummyBase.mtl
o TrainingDummy
v 0.000000 1.576788 -0.139484
v -0.000000 0.749065 -0.076268
v -0.106036 1.576788 -0.005339
v -0.080219 0.749065 -0.000006
v 0.000000 1.576788 0.101491
v -0.000000 0.749065 0.076255
v 0.000000 1.036428 -0.206442
v 0.000000 1.036428 0.191558
v 0.000000 1.404856 0.225465
v 0.000000 1.404856 -0.228394
v -0.000000 0.820657 -0.075127
v -0.080293 0.820657 -0.000108
v -0.000000 0.820657 0.074690
v 0.000000 0.695550 -0.139563
v -0.181366 0.695550 0.000000
v 0.000000 0.695550 0.139563
v -0.182006 1.751557 0.002058
v 0.000000 1.751557 -0.178580
v 0.000000 1.751557 0.145192
v -0.117183 1.906379 0.004889
v 0.000000 1.935520 -0.079888
v 0.000000 1.908088 0.104554
v -0.197003 1.013568 -0.002977
v -0.238856 1.404856 -0.069776
v -0.238444 1.404856 0.069151
v -0.213484 1.478726 -0.002294
v -0.422416 1.325543 -0.012692
v -0.426451 1.397726 0.072676
v -0.433806 1.402988 -0.102753
v -0.434036 1.502979 0.007153
v -0.176533 1.335731 -0.013788
v -0.168427 1.407019 0.072006
v -0.171404 1.405470 -0.087497
v -0.176533 1.486360 -0.002959
v 0.106036 1.576788 -0.005339
v 0.080219 0.749065 -0.000006
v 0.080293 0.820657 -0.000108
v 0.181366 0.695550 0.000000
v 0.182006 1.751557 0.002058
v 0.117183 1.906379 0.004889
v 0.197003 1.013568 -0.002977
v 0.238856 1.404856 -0.069776
v 0.238444 1.404856 0.069151
v 0.213484 1.478726 -0.002294
v 0.422416 1.325543 -0.012692
v 0.426451 1.397726 0.072676
v 0.433806 1.402988 -0.102753
v 0.434036 1.502979 0.007153
v 0.176533 1.335731 -0.013788
v 0.176334 1.406983 0.071019
v 0.175081 1.405240 -0.085093
v 0.176533 1.486360 -0.002959
vn -0.5101 0.5806 0.6346
vn -0.5636 0.5245 -0.6382
vn -0.6302 -0.1243 -0.7664
vn -0.6333 -0.3986 -0.6633
vn -0.6313 -0.3704 0.6814
vn -0.6853 0.0081 0.7282
vn -0.6859 0.0049 -0.7277
vn -0.4372 0.7267 0.5299
vn -0.0000 -1.0000 -0.0000
vn -0.4373 0.7266 -0.5300
vn -0.6354 -0.2451 0.7322
vn -0.6155 0.2200 0.7568
vn -0.7203 -0.2163 -0.6591
vn -0.1382 0.9796 0.1457
vn -0.6442 0.3300 -0.6900
vn -0.9466 0.3225 0.0028
vn -0.9944 -0.1059 0.0029
vn -0.6166 -0.1417 0.7745
vn -0.9968 -0.0697 0.0397
vn 0.0266 0.7323 -0.6805
vn 0.9998 0.0013 -0.0187
vn 0.0319 -0.7664 0.6416
vn 0.0371 -0.7425 -0.6688
vn 0.0252 0.6068 0.7945
vn 0.5101 0.5806 0.6346
vn 0.5636 0.5245 -0.6382
vn 0.6302 -0.1243 -0.7664
vn 0.6333 -0.3986 -0.6633
vn 0.6313 -0.3704 0.6814
vn 0.6853 0.0081 0.7282
vn 0.6859 0.0049 -0.7277
vn 0.4372 0.7267 0.5299
vn 0.4373 0.7266 -0.5300
vn 0.6354 -0.2451 0.7322
vn 0.6155 0.2200 0.7568
vn 0.7203 -0.2163 -0.6591
vn 0.1382 0.9796 0.1457
vn 0.6442 0.3300 -0.6900
vn 0.9466 0.3225 0.0028
vn 0.9944 -0.1059 0.0029
vn 0.6166 -0.1417 0.7745
vn 0.9968 -0.0697 0.0397
vn -0.0303 0.7273 -0.6856
vn -1.0000 -0.0006 0.0080
vn -0.0335 -0.7638 0.6446
vn -0.0403 -0.7375 -0.6741
vn -0.0272 0.6033 0.7970
vt 0.221232 0.237368
vt 0.471966 0.582334
vt 0.479779 0.591123
vt 0.137538 0.784006
vt 0.388272 0.035696
vt 0.501468 0.827769
vt 0.740941 0.448359
vt 0.108891 0.227524
vt 0.828099 0.448169
vt 0.953915 0.834811
vt 0.064139 0.776691
vt 0.521130 0.925654
vt 0.840974 0.448169
vt 0.552793 0.549286
vt 0.754488 0.444854
vt 0.578037 0.000000
vt 0.905314 0.779701
vt 0.216324 0.594797
vt 0.467058 0.224905
vt 0.712065 0.246332
vt 0.522631 0.195297
vt 0.623816 0.973485
vt 0.707117 0.000000
vt 0.501468 0.440768
vt 0.250734 0.351451
vt 0.501468 0.468251
vt 0.141740 0.736691
vt 0.392474 0.083011
vt 0.830079 0.400781
vt 0.068877 0.729376
vt 0.757065 0.397574
vt 0.577494 0.047348
vt 0.163088 0.819702
vt 0.707117 0.706871
vt 0.413823 0.000000
vt 0.943483 0.906662
vt 0.707117 0.859382
vt 0.012239 0.803337
vt 0.854539 0.783049
vt 0.854539 0.820314
vt 0.707117 0.568483
vt 0.080705 0.105448
vt 0.250734 0.122085
vt 0.509281 0.706407
vt 0.861234 0.566140
vt 0.530664 0.666922
vt 0.741993 0.667804
vt 0.437939 0.819702
vt 0.120621 0.008712
vt 0.217531 0.000000
vt 0.343107 0.843683
vt 0.476078 0.828491
vt 0.844513 0.667804
vt 0.545771 0.768837
vt 0.437939 0.921895
vt 0.027125 0.591854
vt 0.895383 0.270127
vt 0.063639 0.330031
vt 0.623816 0.783561
vt 0.000000 0.329335
vt 0.895383 0.004792
vt 0.561497 0.770463
vt 0.049640 0.283048
vt 0.687752 0.770463
vt 0.840219 0.991311
vt 0.687752 0.833826
vt 0.897103 0.994148
vt 0.112943 0.827809
vt 0.624208 0.784427
vt 0.000000 0.819702
vt 0.780180 0.998746
vt 0.623816 0.871086
vt 0.050723 0.831983
vt 0.437939 0.898857
vt 0.839914 0.827446
vt 0.498588 0.887029
vt 0.897103 0.822192
vt 0.112943 0.998623
vt 0.011512 0.993058
vt 0.440326 0.840371
vt 0.790801 0.823900
vt 0.498588 0.819702
vt 0.049713 0.999644
vt 0.359625 0.592178
vt 0.652810 0.551064
vt 0.367438 0.600967
vt 0.651707 0.001541
vt 0.953915 0.729163
vt 0.314873 0.043011
vt 0.650561 0.048957
vt 0.319611 0.090326
vt 0.943483 0.667803
vt 0.854539 0.667803
vt 0.262973 0.016365
vt 0.684725 0.671709
vt 0.339251 0.723043
vt 0.648278 0.770463
vt 0.342521 0.940999
vt 0.379168 0.819780
vt 0.277859 0.227848
vt 0.707117 0.183629
vt 0.314373 0.489671
vt 0.250734 0.490367
vt 0.689641 0.448387
vt 0.707117 0.492723
vt 0.300375 0.536654
vt 0.075530 0.232459
vt 0.285648 0.826895
vt 0.075530 0.169096
vt 0.342521 0.823829
vt 0.112943 0.836587
vt 0.011986 0.218495
vt 0.225579 0.830039
vt 0.225579 0.819702
vt 0.011594 0.131836
vt 0.174347 0.819702
vt 0.765575 0.940169
vt 0.286003 0.990760
vt 0.709018 0.924590
vt 0.342521 0.990518
vt 0.125161 1.000000
vt 0.224474 1.000000
vt 0.765575 0.881596
vt 0.238491 0.992043
vt 0.707117 0.859382
vt 0.187349 0.990736
s 0
usemtl Material
f 9/22/1 5/12/1 3/6/1 26/62/1 25/59/1
f 24/58/2 26/63/2 3/8/2 1/1/2 10/25/2
f 23/56/3 24/58/3 10/25/3 7/18/3
f 12/30/4 23/56/4 7/18/4 11/27/4
f 13/31/5 8/20/5 23/57/5 12/29/5
f 6/15/6 13/31/6 12/29/6 4/9/6
f 4/11/7 12/30/7 11/27/7 2/4/7
f 6/17/8 4/10/8 15/36/8 16/39/8
f 15/37/9 14/34/9 16/40/9
f 4/11/10 2/4/10 14/33/10 15/38/10
f 3/7/11 5/13/11 19/45/11 17/41/11
f 17/41/12 19/45/12 22/53/12 20/47/12
f 1/1/13 3/8/13 17/42/13 18/43/13
f 20/48/14 22/55/14 21/51/14
f 18/43/15 17/42/15 20/49/15 21/50/15
f 24/58/16 25/60/16 26/63/16
f 24/58/17 23/56/17 25/60/17
f 8/20/18 9/23/18 25/61/18 23/57/18
f 27/64/19 28/66/19 30/72/19 29/69/19
f 29/70/20 30/73/20 34/83/20 33/79/20
f 33/80/21 34/82/21 32/76/21 31/74/21
f 31/75/22 32/77/22 28/67/22 27/65/22
f 29/71/23 33/81/23 31/75/23 27/65/23
f 34/83/24 30/73/24 28/68/24 32/78/24
f 9/24/25 43/104/25 44/105/25 35/85/25 5/14/25
f 42/102/26 10/26/26 1/2/26 35/84/26 44/106/26
f 41/100/27 7/19/27 10/26/27 42/102/27
f 37/91/28 11/28/28 7/19/28 41/100/28
f 13/32/29 37/90/29 41/101/29 8/21/29
f 6/16/30 36/87/30 37/90/30 13/32/30
f 36/89/31 2/5/31 11/28/31 37/91/31
f 6/17/32 16/39/32 38/92/32 36/88/32
f 38/93/9 16/40/9 14/34/9
f 36/89/33 38/94/33 14/35/33 2/5/33
f 35/85/34 39/95/34 19/46/34 5/14/34
f 39/95/35 40/97/35 22/54/35 19/46/35
f 1/3/36 18/44/36 39/96/36 35/86/36
f 40/98/37 21/51/37 22/55/37
f 18/44/38 21/52/38 40/99/38 39/96/38
f 42/102/39 44/106/39 43/103/39
f 42/102/40 43/103/40 41/100/40
f 8/21/41 41/101/41 43/104/41 9/24/41
f 45/107/42 47/112/42 48/115/42 46/109/42
f 47/113/43 51/122/43 52/126/43 48/116/43
f 51/123/44 49/117/44 50/119/44 52/125/44
f 49/118/45 45/108/45 46/110/45 50/120/45
f 47/114/46 45/108/46 49/118/46 51/124/46
f 52/126/47 50/121/47 46/111/47 48/116/47
