# Blender 3.4.1
# www.blender.org
mtllib SphereLowpoly.mtl
o SphereLowpoly
v 0.000000 0.632719 -0.707107
v 0.000000 0.000000 -1.051977
v 0.000000 -0.632719 -0.707107
v 0.000000 -1.000000 0.000000
v 0.672499 0.632719 -0.218508
v 1.000490 0.000000 -0.325079
v 0.672499 -0.632719 -0.218508
v 0.415627 0.632719 0.572061
v 0.618337 0.000000 0.851067
v 0.415627 -0.632719 0.572061
v 0.000000 1.000000 0.000000
v -0.415627 0.632719 0.572061
v -0.618337 0.000000 0.851067
v -0.415627 -0.632719 0.572061
v -0.672498 0.632719 -0.218508
v -1.000490 0.000000 -0.325079
v -0.672498 -0.632719 -0.218508
vn 0.5378 0.4035 -0.7402
vn 0.5378 -0.4035 -0.7402
vn 0.3176 0.8415 -0.4371
vn 0.3176 -0.8415 -0.4371
vn 0.8702 -0.4035 0.2827
vn 0.5138 0.8415 0.1670
vn 0.5138 -0.8415 0.1670
vn 0.8702 0.4035 0.2827
vn -0.0000 -0.4035 0.9150
vn -0.0000 0.8415 0.5403
vn -0.0000 -0.8415 0.5403
vn -0.0000 0.4035 0.9150
vn -0.8702 0.4035 0.2827
vn -0.8702 -0.4035 0.2827
vn -0.5138 0.8415 0.1670
vn -0.5138 -0.8415 0.1670
vn -0.3176 -0.8415 -0.4371
vn -0.5378 0.4035 -0.7402
vn -0.5378 -0.4035 -0.7402
vn -0.3176 0.8415 -0.4371
vt 0.600000 0.750000
vt 0.600000 0.500000
vt 0.600000 0.250000
vt 0.500000 0.000000
vt 0.300000 0.000000
vt 0.100000 0.000000
vt 0.900000 0.000000
vt 0.700000 0.000000
vt 0.400000 0.750000
vt 0.400000 0.500000
vt 0.400000 0.250000
vt 0.200000 0.750000
vt 0.200000 0.500000
vt 0.200000 0.250000
vt 0.500000 1.000000
vt 0.300000 1.000000
vt 0.100000 1.000000
vt 0.900000 1.000000
vt 0.700000 1.000000
vt 0.000000 0.750000
vt 1.000000 0.750000
vt 0.000000 0.500000
vt 1.000000 0.500000
vt 0.000000 0.250000
vt 1.000000 0.250000
vt 0.800000 0.750000
vt 0.800000 0.500000
vt 0.800000 0.250000
s 0
f 2/2/1 1/1/1 5/9/1 6/10/1
f 3/3/2 2/2/2 6/10/2 7/11/2
f 1/1/3 11/15/3 5/9/3
f 4/4/4 3/3/4 7/11/4
f 7/11/5 6/10/5 9/13/5 10/14/5
f 5/9/6 11/16/6 8/12/6
f 4/5/7 7/11/7 10/14/7
f 6/10/8 5/9/8 8/12/8 9/13/8
f 10/14/9 9/13/9 13/22/9 14/24/9
f 8/12/10 11/17/10 12/20/10
f 4/6/11 10/14/11 14/24/11
f 9/13/12 8/12/12 12/20/12 13/22/12
f 13/23/13 12/21/13 15/26/13 16/27/13
f 14/25/14 13/23/14 16/27/14 17/28/14
f 12/21/15 11/18/15 15/26/15
f 4/7/16 14/25/16 17/28/16
f 4/8/17 17/28/17 3/3/17
f 16/27/18 15/26/18 1/1/18 2/2/18
f 17/28/19 16/27/19 2/2/19 3/3/19
f 15/26/20 11/19/20 1/1/20
